<?xml version="1.0" encoding="UTF-8"?>
<svg xmlns="http://www.w3.org/2000/svg" xmlns:xlink="http://www.w3.org/1999/xlink" width="48px" height="48px" viewBox="0 0 48 48" version="1.1">
<g id="surface1">
<path style=" stroke:none;fill-rule:nonzero;fill:rgb(30.980392%,68.235294%,86.27451%);fill-opacity:1;" d="M 24.726562 9.058594 C 25.554688 9.804688 26.421875 10.507812 27.332031 11.167969 C 28.449219 11.042969 29.566406 10.835938 30.683594 10.589844 C 30.640625 10.464844 30.601562 10.300781 30.558594 10.175781 C 29.113281 9.308594 27.707031 8.316406 26.382812 7.28125 C 25.84375 7.902344 25.304688 8.480469 24.726562 9.058594 Z M 24.726562 9.058594 "/>
<path style=" stroke:none;fill-rule:nonzero;fill:rgb(89.019608%,29.019608%,23.137255%);fill-opacity:1;" d="M 13.597656 37.101562 C 12.523438 36.5625 11.40625 36.066406 10.289062 35.652344 C 9.792969 36.9375 9.171875 38.21875 8.511719 39.417969 C 10.167969 38.507812 11.863281 37.722656 13.597656 37.101562 Z M 13.597656 37.101562 "/>
<path style=" stroke:none;fill-rule:nonzero;fill:rgb(30.980392%,68.235294%,86.27451%);fill-opacity:1;" d="M 30.144531 8.5625 C 29.773438 6.703125 29.566406 4.757812 29.523438 2.8125 C 28.78125 4.054688 27.996094 5.253906 27.085938 6.371094 C 28.078125 7.117188 29.113281 7.859375 30.144531 8.5625 Z M 30.144531 8.5625 "/>
<path style=" stroke:none;fill-rule:nonzero;fill:rgb(89.019608%,29.019608%,23.137255%);fill-opacity:1;" d="M 15.417969 36.523438 C 15.542969 36.480469 15.667969 36.441406 15.792969 36.441406 C 15.460938 35.40625 15.089844 34.371094 14.632812 33.378906 C 13.597656 32.925781 12.523438 32.550781 11.449219 32.179688 C 11.242188 32.964844 10.992188 33.75 10.746094 34.539062 C 12.277344 35.117188 13.765625 35.820312 15.210938 36.605469 C 15.296875 36.5625 15.335938 36.5625 15.417969 36.523438 Z M 15.417969 36.523438 "/>
<path style=" stroke:none;fill-rule:nonzero;fill:rgb(89.019608%,29.019608%,23.137255%);fill-opacity:1;" d="M 12.894531 29.945312 C 12.648438 29.53125 12.398438 29.160156 12.152344 28.746094 C 12.027344 29.492188 11.902344 30.277344 11.738281 31.023438 C 12.484375 31.226562 13.1875 31.476562 13.890625 31.765625 C 13.597656 31.1875 13.269531 30.566406 12.894531 29.945312 Z M 12.894531 29.945312 "/>
<path style=" stroke:none;fill-rule:nonzero;fill:rgb(89.019608%,29.019608%,23.137255%);fill-opacity:1;" d="M 7.394531 26.347656 C 5.988281 27.589844 4.457031 28.664062 2.84375 29.65625 C 4.25 29.65625 5.65625 29.78125 7.023438 29.988281 C 7.230469 28.789062 7.351562 27.589844 7.394531 26.347656 Z M 7.394531 26.347656 "/>
<path style=" stroke:none;fill-rule:nonzero;fill:rgb(89.019608%,29.019608%,23.137255%);fill-opacity:1;" d="M 10.332031 31.847656 C 9.585938 31.640625 8.800781 31.476562 8.054688 31.3125 C 7.933594 32.015625 7.808594 32.71875 7.644531 33.421875 C 8.304688 33.628906 9.007812 33.835938 9.667969 34.082031 C 9.875 33.378906 10.125 32.632812 10.332031 31.847656 Z M 10.332031 31.847656 "/>
<path style=" stroke:none;fill-rule:nonzero;fill:rgb(62.352941%,47.843137%,69.019608%);fill-opacity:1;" d="M 11.695312 16.960938 C 11.863281 17.664062 11.984375 18.40625 12.109375 19.152344 C 12.730469 18.199219 13.308594 17.25 13.804688 16.257812 C 13.101562 16.503906 12.398438 16.710938 11.695312 16.960938 Z M 11.695312 16.960938 "/>
<path style=" stroke:none;fill-rule:nonzero;fill:rgb(30.980392%,68.235294%,86.27451%);fill-opacity:1;" d="M 25.554688 11.292969 C 24.976562 10.835938 24.394531 10.339844 23.859375 9.84375 C 23.320312 10.339844 22.78125 10.835938 22.203125 11.292969 C 23.320312 11.375 24.4375 11.375 25.554688 11.292969 Z M 25.554688 11.292969 "/>
<path style=" stroke:none;fill-rule:nonzero;fill:rgb(10.588235%,45.882353%,73.333333%);fill-opacity:1;" d="M 34.160156 10.835938 C 35.273438 11.375 36.390625 11.871094 37.507812 12.328125 C 38.003906 11.042969 38.625 9.761719 39.289062 8.523438 C 37.632812 9.429688 35.9375 10.21875 34.160156 10.835938 Z M 34.160156 10.835938 "/>
<path style=" stroke:none;fill-rule:nonzero;fill:rgb(62.352941%,47.843137%,69.019608%);fill-opacity:1;" d="M 10.289062 12.367188 C 11.449219 11.914062 12.566406 11.375 13.683594 10.835938 C 11.863281 10.21875 10.125 9.429688 8.429688 8.523438 C 9.132812 9.761719 9.753906 11.042969 10.289062 12.367188 Z M 10.289062 12.367188 "/>
<path style=" stroke:none;fill-rule:nonzero;fill:rgb(30.980392%,68.235294%,86.27451%);fill-opacity:1;" d="M 23.859375 5.089844 C 23.363281 5.585938 22.824219 6.039062 22.285156 6.496094 C 22.78125 7.074219 23.320312 7.652344 23.898438 8.191406 C 24.4375 7.652344 24.976562 7.074219 25.472656 6.496094 C 24.890625 6.082031 24.355469 5.585938 23.859375 5.089844 Z M 23.859375 5.089844 "/>
<path style=" stroke:none;fill-rule:nonzero;fill:rgb(30.980392%,68.235294%,86.27451%);fill-opacity:1;" d="M 23.03125 9.058594 C 22.453125 8.480469 21.914062 7.902344 21.375 7.28125 C 20.09375 8.316406 18.730469 9.265625 17.324219 10.132812 C 17.28125 10.300781 17.238281 10.464844 17.199219 10.632812 C 18.273438 10.878906 19.390625 11.042969 20.507812 11.167969 C 21.375 10.507812 22.203125 9.804688 23.03125 9.058594 Z M 23.03125 9.058594 "/>
<path style=" stroke:none;fill-rule:nonzero;fill:rgb(97.647059%,64.705882%,20%);fill-opacity:1;" d="M 22.203125 36.605469 C 22.78125 37.058594 23.363281 37.554688 23.941406 38.09375 C 24.480469 37.597656 25.058594 37.058594 25.636719 36.605469 C 24.519531 36.523438 23.363281 36.523438 22.203125 36.605469 Z M 22.203125 36.605469 "/>
<path style=" stroke:none;fill-rule:nonzero;fill:rgb(97.647059%,64.705882%,20%);fill-opacity:1;" d="M 17.777344 39.5 C 18.109375 41.320312 18.316406 43.140625 18.355469 44.960938 C 19.058594 43.800781 19.84375 42.644531 20.671875 41.570312 C 19.761719 40.867188 18.769531 40.164062 17.777344 39.5 Z M 17.777344 39.5 "/>
<path style=" stroke:none;fill-rule:nonzero;fill:rgb(97.647059%,64.705882%,20%);fill-opacity:1;" d="M 23.941406 42.851562 C 24.480469 42.355469 24.976562 41.898438 25.554688 41.402344 C 25.058594 40.824219 24.519531 40.246094 23.980469 39.707031 C 23.445312 40.246094 22.90625 40.824219 22.367188 41.445312 C 22.90625 41.898438 23.402344 42.355469 23.941406 42.851562 Z M 23.941406 42.851562 "/>
<path style=" stroke:none;fill-rule:nonzero;fill:rgb(97.647059%,64.705882%,20%);fill-opacity:1;" d="M 23.113281 38.878906 C 22.285156 38.09375 21.417969 37.390625 20.464844 36.730469 C 19.390625 36.851562 18.316406 37.019531 17.28125 37.265625 C 17.324219 37.472656 17.40625 37.679688 17.445312 37.847656 C 18.8125 38.714844 20.175781 39.625 21.457031 40.660156 C 21.957031 40.078125 22.535156 39.460938 23.113281 38.878906 Z M 23.113281 38.878906 "/>
<path style=" stroke:none;fill-rule:nonzero;fill:rgb(10.588235%,45.882353%,73.333333%);fill-opacity:1;" d="M 40.199219 14.519531 C 39.535156 14.3125 38.875 14.105469 38.210938 13.855469 C 37.964844 14.601562 37.714844 15.347656 37.550781 16.089844 C 38.292969 16.296875 39.039062 16.460938 39.824219 16.585938 C 39.90625 15.882812 40.03125 15.179688 40.199219 14.519531 Z M 40.199219 14.519531 "/>
<path style=" stroke:none;fill-rule:nonzero;fill:rgb(10.588235%,45.882353%,73.333333%);fill-opacity:1;" d="M 40.941406 16.792969 C 42.929688 17.082031 44.953125 17.164062 46.980469 17.082031 C 46.859375 16.710938 46.734375 16.296875 46.609375 15.925781 C 44.832031 15.675781 43.09375 15.347656 41.355469 14.851562 C 41.191406 15.46875 41.066406 16.132812 40.941406 16.792969 Z M 40.941406 16.792969 "/>
<path style=" stroke:none;fill-rule:nonzero;fill:rgb(54.509804%,77.254902%,24.705882%);fill-opacity:1;" d="M 45.078125 29.574219 C 43.425781 28.582031 41.851562 27.464844 40.40625 26.183594 C 40.488281 27.421875 40.609375 28.664062 40.777344 29.90625 C 42.183594 29.699219 43.632812 29.574219 45.078125 29.574219 Z M 45.078125 29.574219 "/>
<path style=" stroke:none;fill-rule:nonzero;fill:rgb(62.352941%,47.843137%,69.019608%);fill-opacity:1;" d="M 2.925781 18.367188 C 4.5 19.316406 5.988281 20.390625 7.394531 21.589844 C 7.3125 20.390625 7.1875 19.191406 7.023438 18.035156 C 5.65625 18.242188 4.292969 18.324219 2.925781 18.367188 Z M 2.925781 18.367188 "/>
<path style=" stroke:none;fill-rule:nonzero;fill:rgb(10.588235%,45.882353%,73.333333%);fill-opacity:1;" d="M 39.164062 22.75 C 39.203125 21.054688 39.371094 19.398438 39.578125 17.746094 C 38.792969 17.578125 38.003906 17.414062 37.21875 17.207031 C 36.972656 18.28125 36.804688 19.359375 36.679688 20.433594 C 37.34375 21.34375 38.089844 22.210938 38.832031 23.039062 C 38.957031 22.957031 39.082031 22.875 39.164062 22.75 Z M 39.164062 22.75 "/>
<path style=" stroke:none;fill-rule:nonzero;fill:rgb(54.509804%,77.254902%,24.705882%);fill-opacity:1;" d="M 37.550781 35.53125 C 36.390625 35.984375 35.316406 36.480469 34.199219 37.019531 C 35.976562 37.640625 37.714844 38.382812 39.328125 39.292969 C 38.667969 38.09375 38.046875 36.8125 37.550781 35.53125 Z M 37.550781 35.53125 "/>
<path style=" stroke:none;fill-rule:nonzero;fill:rgb(97.647059%,64.705882%,20%);fill-opacity:1;" d="M 24.808594 38.878906 C 25.386719 39.460938 25.925781 40.039062 26.464844 40.660156 C 27.789062 39.582031 29.152344 38.632812 30.601562 37.722656 C 30.640625 37.554688 30.683594 37.433594 30.726562 37.265625 C 29.648438 37.019531 28.53125 36.851562 27.414062 36.730469 C 26.503906 37.390625 25.636719 38.136719 24.808594 38.878906 Z M 24.808594 38.878906 "/>
<path style=" stroke:none;fill-rule:nonzero;fill:rgb(89.019608%,29.019608%,23.137255%);fill-opacity:1;" d="M 11.160156 27.339844 C 10.496094 26.472656 9.792969 25.601562 9.050781 24.816406 C 8.925781 24.941406 8.757812 25.105469 8.636719 25.230469 C 8.59375 26.886719 8.46875 28.539062 8.222656 30.195312 C 9.007812 30.359375 9.835938 30.523438 10.621094 30.730469 C 10.828125 29.617188 11.035156 28.5 11.160156 27.339844 Z M 11.160156 27.339844 "/>
<path style=" stroke:none;fill-rule:nonzero;fill:rgb(54.509804%,77.254902%,24.705882%);fill-opacity:1;" d="M 35.730469 28.828125 C 35.152344 29.738281 34.570312 30.691406 34.074219 31.683594 C 34.738281 31.433594 35.441406 31.1875 36.144531 30.980469 C 35.976562 30.277344 35.8125 29.574219 35.730469 28.828125 Z M 35.730469 28.828125 "/>
<path style=" stroke:none;fill-rule:nonzero;fill:rgb(54.509804%,77.254902%,24.705882%);fill-opacity:1;" d="M 37.136719 34.453125 C 36.847656 33.667969 36.640625 32.925781 36.433594 32.136719 C 35.398438 32.46875 34.363281 32.839844 33.371094 33.296875 C 32.917969 34.332031 32.546875 35.363281 32.214844 36.441406 C 32.378906 36.480469 32.503906 36.523438 32.667969 36.5625 C 34.074219 35.777344 35.605469 35.035156 37.136719 34.453125 Z M 37.136719 34.453125 "/>
<path style=" stroke:none;fill-rule:nonzero;fill:rgb(62.352941%,47.843137%,69.019608%);fill-opacity:1;" d="M 15.710938 11.457031 C 15.542969 11.417969 15.417969 11.375 15.253906 11.335938 C 13.765625 12.121094 12.277344 12.863281 10.703125 13.484375 C 10.992188 14.230469 11.199219 15.015625 11.449219 15.800781 C 12.523438 15.46875 13.558594 15.054688 14.59375 14.601562 C 15.003906 13.609375 15.378906 12.535156 15.710938 11.457031 Z M 15.710938 11.457031 "/>
<path style=" stroke:none;fill-rule:nonzero;fill:rgb(97.647059%,64.705882%,20%);fill-opacity:1;" d="M 29.648438 45.085938 C 29.648438 43.140625 29.855469 41.238281 30.226562 39.375 C 29.195312 40.078125 28.203125 40.78125 27.207031 41.570312 C 28.078125 42.683594 28.90625 43.84375 29.648438 45.085938 Z M 29.648438 45.085938 "/>
<path style=" stroke:none;fill-rule:nonzero;fill:rgb(89.019608%,29.019608%,23.137255%);fill-opacity:1;" d="M 7.476562 23.578125 C 7.476562 23.453125 7.476562 23.328125 7.476562 23.246094 C 5.449219 21.34375 3.132812 19.773438 0.652344 18.488281 C -0.175781 22.046875 -0.257812 25.808594 0.652344 29.574219 C 3.175781 28.25 5.449219 26.636719 7.476562 24.734375 C 7.476562 24.320312 7.476562 23.949219 7.476562 23.578125 Z M 7.476562 23.578125 "/>
<path style=" stroke:none;fill-rule:nonzero;fill:rgb(97.647059%,64.705882%,20%);fill-opacity:1;" d="M 24.808594 43.636719 C 26.050781 44.878906 27.25 46.199219 28.367188 47.605469 C 28.78125 47.523438 29.195312 47.441406 29.566406 47.359375 C 28.65625 45.539062 27.539062 43.84375 26.296875 42.3125 C 25.761719 42.769531 25.265625 43.179688 24.808594 43.636719 Z M 24.808594 43.636719 "/>
<path style=" stroke:none;fill-rule:nonzero;fill:rgb(97.647059%,64.705882%,20%);fill-opacity:1;" d="M 15.089844 37.886719 C 12.398438 38.714844 9.835938 39.914062 7.476562 41.445312 C 10.207031 44.050781 13.515625 45.953125 17.15625 47.027344 C 17.28125 44.214844 17.03125 41.402344 16.414062 38.632812 C 15.957031 38.382812 15.503906 38.136719 15.089844 37.886719 Z M 15.089844 37.886719 "/>
<path style=" stroke:none;fill-rule:nonzero;fill:rgb(97.647059%,64.705882%,20%);fill-opacity:1;" d="M 20.921875 47.8125 C 22.90625 48.0625 24.933594 48.0625 26.960938 47.8125 C 26.007812 46.613281 24.976562 45.496094 23.898438 44.464844 C 22.867188 45.539062 21.871094 46.65625 20.921875 47.8125 Z M 20.921875 47.8125 "/>
<path style=" stroke:none;fill-rule:nonzero;fill:rgb(89.019608%,29.019608%,23.137255%);fill-opacity:1;" d="M 7.3125 34.578125 C 6.855469 36.273438 6.320312 37.886719 5.65625 39.5 C 5.945312 39.832031 6.195312 40.121094 6.484375 40.453125 C 7.558594 38.796875 8.46875 37.019531 9.171875 35.199219 C 8.59375 34.992188 7.972656 34.785156 7.3125 34.578125 Z M 7.3125 34.578125 "/>
<path style=" stroke:none;fill-rule:nonzero;fill:rgb(89.019608%,29.019608%,23.137255%);fill-opacity:1;" d="M 6.855469 31.144531 C 4.953125 30.855469 2.96875 30.773438 0.984375 30.855469 C 1.105469 31.269531 1.230469 31.683594 1.394531 32.054688 C 3.09375 32.304688 4.789062 32.632812 6.441406 33.089844 C 6.609375 32.46875 6.734375 31.808594 6.855469 31.144531 Z M 6.855469 31.144531 "/>
<path style=" stroke:none;fill-rule:nonzero;fill:rgb(89.019608%,29.019608%,23.137255%);fill-opacity:1;" d="M 1.894531 33.335938 C 2.679688 35.199219 3.671875 36.894531 4.828125 38.464844 C 5.367188 37.101562 5.824219 35.695312 6.195312 34.246094 C 4.789062 33.875 3.339844 33.585938 1.894531 33.335938 Z M 1.894531 33.335938 "/>
<path style=" stroke:none;fill-rule:nonzero;fill:rgb(97.647059%,64.705882%,20%);fill-opacity:1;" d="M 21.582031 42.355469 C 20.34375 43.925781 19.265625 45.582031 18.398438 47.359375 C 18.8125 47.441406 19.183594 47.523438 19.597656 47.605469 C 20.671875 46.199219 21.832031 44.878906 23.070312 43.636719 C 22.617188 43.222656 22.121094 42.769531 21.582031 42.355469 Z M 21.582031 42.355469 "/>
<path style=" stroke:none;fill-rule:nonzero;fill:rgb(54.509804%,77.254902%,24.705882%);fill-opacity:1;" d="M 31.59375 38.507812 C 30.933594 41.277344 30.683594 44.132812 30.847656 47.027344 C 34.613281 45.910156 37.882812 43.96875 40.527344 41.402344 C 38.089844 39.832031 35.480469 38.632812 32.75 37.804688 C 32.378906 38.054688 32.007812 38.257812 31.59375 38.507812 Z M 31.59375 38.507812 "/>
<path style=" stroke:none;fill-rule:nonzero;fill:rgb(10.588235%,45.882353%,73.333333%);fill-opacity:1;" d="M 47.3125 18.324219 C 44.707031 19.648438 42.390625 21.34375 40.320312 23.289062 C 40.320312 23.699219 40.320312 24.113281 40.320312 24.527344 C 42.390625 26.472656 44.746094 28.167969 47.355469 29.492188 C 48.222656 25.933594 48.265625 22.085938 47.3125 18.324219 Z M 47.3125 18.324219 "/>
<path style=" stroke:none;fill-rule:nonzero;fill:rgb(54.509804%,77.254902%,24.705882%);fill-opacity:1;" d="M 43.09375 38.550781 C 44.335938 36.894531 45.367188 35.117188 46.152344 33.171875 C 44.625 33.421875 43.132812 33.710938 41.644531 34.125 C 42.058594 35.652344 42.515625 37.144531 43.09375 38.550781 Z M 43.09375 38.550781 "/>
<path style=" stroke:none;fill-rule:nonzero;fill:rgb(54.509804%,77.254902%,24.705882%);fill-opacity:1;" d="M 40.984375 31.0625 C 41.109375 31.726562 41.230469 32.34375 41.398438 33.007812 C 43.132812 32.511719 44.914062 32.179688 46.691406 31.929688 C 46.816406 31.558594 46.941406 31.1875 47.0625 30.773438 C 44.996094 30.691406 42.96875 30.773438 40.984375 31.0625 Z M 40.984375 31.0625 "/>
<path style=" stroke:none;fill-rule:nonzero;fill:rgb(54.509804%,77.254902%,24.705882%);fill-opacity:1;" d="M 39.824219 31.269531 C 39.082031 31.394531 38.292969 31.601562 37.550781 31.808594 C 37.757812 32.550781 37.964844 33.296875 38.253906 34.039062 C 38.914062 33.792969 39.578125 33.585938 40.238281 33.378906 C 40.074219 32.675781 39.949219 31.972656 39.824219 31.269531 Z M 39.824219 31.269531 "/>
<path style=" stroke:none;fill-rule:nonzero;fill:rgb(54.509804%,77.254902%,24.705882%);fill-opacity:1;" d="M 38.667969 35.117188 C 39.410156 36.976562 40.320312 38.796875 41.4375 40.492188 C 41.726562 40.203125 41.976562 39.914062 42.222656 39.625 C 41.519531 37.929688 40.984375 36.234375 40.527344 34.496094 C 39.90625 34.703125 39.289062 34.910156 38.667969 35.117188 Z M 38.667969 35.117188 "/>
<path style=" stroke:none;fill-rule:nonzero;fill:rgb(54.509804%,77.254902%,24.705882%);fill-opacity:1;" d="M 39.617188 30.113281 C 39.371094 28.414062 39.203125 26.761719 39.164062 25.066406 C 39.082031 24.984375 38.957031 24.859375 38.875 24.777344 C 38.089844 25.601562 37.382812 26.511719 36.722656 27.421875 C 36.847656 28.5 37.054688 29.617188 37.261719 30.648438 C 38.046875 30.441406 38.832031 30.277344 39.617188 30.113281 Z M 39.617188 30.113281 "/>
<path style=" stroke:none;fill-rule:nonzero;fill:rgb(30.980392%,68.235294%,86.27451%);fill-opacity:1;" d="M 22.988281 4.304688 C 21.75 3.101562 20.632812 1.820312 19.554688 0.457031 C 19.140625 0.539062 18.769531 0.621094 18.355469 0.703125 C 19.265625 2.441406 20.34375 4.097656 21.542969 5.625 C 22.039062 5.171875 22.492188 4.714844 22.988281 4.304688 Z M 22.988281 4.304688 "/>
<path style=" stroke:none;fill-rule:nonzero;fill:rgb(10.588235%,45.882353%,73.333333%);fill-opacity:1;" d="M 40.488281 13.359375 C 40.941406 11.664062 41.480469 9.96875 42.183594 8.316406 C 41.933594 8.023438 41.644531 7.695312 41.355469 7.40625 C 40.238281 9.101562 39.328125 10.878906 38.625 12.742188 C 39.246094 12.945312 39.867188 13.152344 40.488281 13.359375 Z M 40.488281 13.359375 "/>
<path style=" stroke:none;fill-rule:nonzero;fill:rgb(30.980392%,68.235294%,86.27451%);fill-opacity:1;" d="M 32.667969 10.050781 C 35.398438 9.226562 38.003906 8.023438 40.40625 6.453125 C 37.675781 3.929688 34.363281 2.027344 30.765625 0.992188 C 30.640625 3.890625 30.890625 6.703125 31.550781 9.429688 C 31.925781 9.636719 32.296875 9.84375 32.667969 10.050781 Z M 32.667969 10.050781 "/>
<path style=" stroke:none;fill-rule:nonzero;fill:rgb(10.588235%,45.882353%,73.333333%);fill-opacity:1;" d="M 46.113281 14.644531 C 45.285156 12.742188 44.25 10.960938 43.011719 9.347656 C 42.472656 10.753906 41.976562 12.203125 41.605469 13.691406 C 43.09375 14.105469 44.582031 14.394531 46.113281 14.644531 Z M 46.113281 14.644531 "/>
<path style=" stroke:none;fill-rule:nonzero;fill:rgb(62.352941%,47.843137%,69.019608%);fill-opacity:1;" d="M 6.816406 16.875 C 6.691406 16.214844 6.566406 15.59375 6.402344 14.933594 C 4.746094 15.386719 3.050781 15.757812 1.355469 16.007812 C 1.230469 16.378906 1.066406 16.792969 0.984375 17.207031 C 2.925781 17.25 4.914062 17.164062 6.816406 16.875 Z M 6.816406 16.875 "/>
<path style=" stroke:none;fill-rule:nonzero;fill:rgb(10.588235%,45.882353%,73.333333%);fill-opacity:1;" d="M 40.40625 21.632812 C 41.8125 20.390625 43.339844 19.273438 44.996094 18.28125 C 43.589844 18.28125 42.183594 18.160156 40.777344 17.953125 C 40.570312 19.152344 40.445312 20.390625 40.40625 21.632812 Z M 40.40625 21.632812 "/>
<path style=" stroke:none;fill-rule:nonzero;fill:rgb(30.980392%,68.235294%,86.27451%);fill-opacity:1;" d="M 26.796875 0.167969 C 24.851562 -0.0820312 22.867188 -0.0390625 20.878906 0.207031 C 21.832031 1.367188 22.78125 2.441406 23.859375 3.476562 C 24.890625 2.398438 25.886719 1.324219 26.796875 0.167969 Z M 26.796875 0.167969 "/>
<path style=" stroke:none;fill-rule:nonzero;fill:rgb(10.588235%,45.882353%,73.333333%);fill-opacity:1;" d="M 34.074219 16.214844 C 34.570312 17.164062 35.109375 18.117188 35.6875 19.027344 C 35.8125 18.324219 35.9375 17.621094 36.101562 16.917969 C 35.441406 16.667969 34.738281 16.460938 34.074219 16.214844 Z M 34.074219 16.214844 "/>
<path style=" stroke:none;fill-rule:nonzero;fill:rgb(30.980392%,68.235294%,86.27451%);fill-opacity:1;" d="M 26.214844 5.625 C 27.457031 4.097656 28.492188 2.398438 29.402344 0.621094 C 28.988281 0.539062 28.574219 0.457031 28.160156 0.375 C 27.085938 1.738281 25.925781 3.0625 24.683594 4.304688 C 25.183594 4.714844 25.679688 5.171875 26.214844 5.625 Z M 26.214844 5.625 "/>
<path style=" stroke:none;fill-rule:nonzero;fill:rgb(62.352941%,47.843137%,69.019608%);fill-opacity:1;" d="M 9.171875 12.78125 C 8.46875 10.960938 7.558594 9.226562 6.484375 7.570312 C 6.195312 7.859375 5.90625 8.191406 5.65625 8.523438 C 6.320312 10.132812 6.855469 11.746094 7.269531 13.445312 C 7.933594 13.238281 8.554688 13.03125 9.171875 12.78125 Z M 9.171875 12.78125 "/>
<path style=" stroke:none;fill-rule:nonzero;fill:rgb(62.352941%,47.843137%,69.019608%);fill-opacity:1;" d="M 11.117188 20.558594 C 10.992188 19.441406 10.785156 18.367188 10.539062 17.289062 C 9.753906 17.496094 8.964844 17.703125 8.140625 17.828125 C 8.386719 19.441406 8.511719 21.054688 8.59375 22.707031 C 8.71875 22.832031 8.882812 22.957031 9.007812 23.121094 C 9.792969 22.292969 10.496094 21.46875 11.117188 20.558594 Z M 11.117188 20.558594 "/>
<path style=" stroke:none;fill-rule:nonzero;fill:rgb(62.352941%,47.843137%,69.019608%);fill-opacity:1;" d="M 4.789062 9.597656 C 3.628906 11.167969 2.636719 12.90625 1.894531 14.683594 C 3.339844 14.4375 4.746094 14.148438 6.152344 13.773438 C 5.78125 12.367188 5.328125 10.960938 4.789062 9.597656 Z M 4.789062 9.597656 "/>
<path style=" stroke:none;fill-rule:nonzero;fill:rgb(62.352941%,47.843137%,69.019608%);fill-opacity:1;" d="M 16.289062 9.390625 C 16.910156 6.703125 17.15625 3.890625 17.03125 1.035156 C 13.351562 2.152344 10.125 4.097656 7.476562 6.578125 C 9.835938 8.109375 12.441406 9.265625 15.089844 10.050781 C 15.503906 9.84375 15.914062 9.597656 16.289062 9.390625 Z M 16.289062 9.390625 "/>
<path style=" stroke:none;fill-rule:nonzero;fill:rgb(30.980392%,68.235294%,86.27451%);fill-opacity:1;" d="M 18.273438 2.980469 C 18.230469 4.839844 18.066406 6.703125 17.695312 8.480469 C 18.6875 7.820312 19.679688 7.117188 20.632812 6.328125 C 19.761719 5.296875 18.976562 4.179688 18.273438 2.980469 Z M 18.273438 2.980469 "/>
<path style=" stroke:none;fill-rule:nonzero;fill:rgb(62.352941%,47.843137%,69.019608%);fill-opacity:1;" d="M 7.972656 16.667969 C 8.757812 16.503906 9.503906 16.339844 10.289062 16.132812 C 10.082031 15.386719 9.835938 14.644531 9.585938 13.898438 C 8.925781 14.148438 8.222656 14.351562 7.558594 14.558594 C 7.726562 15.261719 7.847656 15.964844 7.972656 16.667969 Z M 7.972656 16.667969 "/>
<path style=" stroke:none;fill-rule:nonzero;fill:rgb(10.588235%,45.882353%,73.333333%);fill-opacity:1;" d="M 32.460938 11.335938 C 32.339844 11.375 32.214844 11.375 32.132812 11.417969 C 32.460938 12.492188 32.875 13.566406 33.332031 14.601562 C 34.324219 15.015625 35.359375 15.386719 36.390625 15.71875 C 36.597656 14.933594 36.847656 14.1875 37.09375 13.402344 C 35.523438 12.78125 34.035156 12.078125 32.546875 11.292969 C 32.503906 11.335938 32.503906 11.335938 32.460938 11.335938 Z M 32.460938 11.335938 "/>
</g>
</svg>
